<svg xmlns="http://www.w3.org/2000/svg" xmlns:xlink="http://www.w3.org/1999/xlink" contentStyleType="text/css" data-diagram-type="CLASS" height="1535px" preserveAspectRatio="none" style="width:874px;height:1535px;background:#FFFFFF;" version="1.1" viewBox="0 0 874 1535" width="874px" zoomAndPan="magnify"><defs/><g><!--class C_0015707221190624193204--><g class="entity" data-entity="C_0015707221190624193204" data-source-line="1" data-uid="ent0002" id="entity_C_0015707221190624193204"><rect fill="#F1F1F1" height="124.2717" rx="2.5" ry="2.5" style="stroke:#181818;stroke-width:0.5;" width="385.8126" x="7" y="1116"/><ellipse cx="164.6114" cy="1132" fill="#A9DCDF" rx="11" ry="11" style="stroke:#181818;stroke-width:1;"/><path d="M164.7208,1127.3438 L163.5646,1132.4219 L165.8927,1132.4219 L164.7208,1127.3438 Z M163.2364,1125.1094 L166.2208,1125.1094 L169.5802,1137.5 L167.1271,1137.5 L166.3614,1134.4375 L163.0802,1134.4375 L162.3302,1137.5 L159.8927,1137.5 L163.2364,1125.1094 Z " fill="#000000"/><text fill="#000000" font-family="sans-serif" font-size="14" font-style="italic" lengthAdjust="spacing" textLength="62.0898" x="185.1114" y="1137.432">Controller</text><line style="stroke:#181818;stroke-width:0.5;" x1="8" x2="391.8126" y1="1148" y2="1148"/><ellipse cx="18" cy="1163.034" fill="#84BE84" rx="3" ry="3" style="stroke:#038048;stroke-width:1;"/><text fill="#000000" font-family="sans-serif" font-size="14" font-style="italic" lengthAdjust="spacing" textLength="204.3012" x="27" y="1166.9659">output(double error) = 0 : double</text><ellipse cx="18" cy="1182.1019" fill="#84BE84" rx="3" ry="3" style="stroke:#038048;stroke-width:1;"/><text fill="#000000" font-family="sans-serif" font-size="14" font-style="italic" lengthAdjust="spacing" textLength="98.3636" x="27" y="1186.0339">reset() = 0 : void</text><ellipse cx="18" cy="1201.1698" fill="#84BE84" rx="3" ry="3" style="stroke:#038048;stroke-width:1;"/><text fill="#000000" font-family="sans-serif" font-size="14" font-style="italic" lengthAdjust="spacing" textLength="276.975" x="27" y="1205.1018">setClamp(double max, double min) = 0 : void</text><ellipse cx="18" cy="1220.2377" fill="#84BE84" rx="3" ry="3" style="stroke:#038048;stroke-width:1;"/><text fill="#000000" font-family="sans-serif" font-size="14" font-style="italic" lengthAdjust="spacing" textLength="359.8126" x="27" y="1224.1697">update_params(double kp, double ki, double kd) = 0 : void</text><line style="stroke:#181818;stroke-width:0.5;" x1="8" x2="391.8126" y1="1232.2717" y2="1232.2717"/></g><!--class C_0006173588471794238490--><g class="entity" data-entity="C_0006173588471794238490" data-source-line="9" data-uid="ent0003" id="entity_C_0006173588471794238490"><rect fill="#F1F1F1" height="208.5433" rx="2.5" ry="2.5" style="stroke:#181818;stroke-width:0.5;" width="382.5367" x="8.5" y="1320"/><ellipse cx="150.7115" cy="1336" fill="#ADD1B2" rx="11" ry="11" style="stroke:#181818;stroke-width:1;"/><path d="M153.6803,1341.6406 Q153.1021,1341.9375 152.4615,1342.0781 Q151.8209,1342.2344 151.1178,1342.2344 Q148.6178,1342.2344 147.2896,1340.5938 Q145.9771,1338.9375 145.9771,1335.8125 Q145.9771,1332.6875 147.2896,1331.0313 Q148.6178,1329.375 151.1178,1329.375 Q151.8209,1329.375 152.4615,1329.5313 Q153.1178,1329.6875 153.6803,1329.9844 L153.6803,1332.7031 Q153.0553,1332.125 152.4615,1331.8594 Q151.8678,1331.5781 151.2428,1331.5781 Q149.899,1331.5781 149.2115,1332.6563 Q148.524,1333.7188 148.524,1335.8125 Q148.524,1337.9063 149.2115,1338.9844 Q149.899,1340.0469 151.2428,1340.0469 Q151.8678,1340.0469 152.4615,1339.7813 Q153.0553,1339.5 153.6803,1338.9219 L153.6803,1341.6406 Z " fill="#000000"/><text fill="#000000" font-family="sans-serif" font-size="14" lengthAdjust="spacing" textLength="89.6137" x="171.2115" y="1341.432">PIDController</text><line style="stroke:#181818;stroke-width:0.5;" x1="9.5" x2="390.0367" y1="1352" y2="1352"/><ellipse cx="19.5" cy="1367.034" fill="#84BE84" rx="3" ry="3" style="stroke:#038048;stroke-width:1;"/><text fill="#000000" font-family="sans-serif" font-size="14" lengthAdjust="spacing" textLength="136.8495" x="28.5" y="1370.9659">PIDController() : void</text><line style="stroke:#181818;stroke-width:1;stroke-dasharray:1.0,2.0;" x1="9.5" x2="390.0367" y1="1379.0679" y2="1379.0679"/><ellipse cx="19.5" cy="1394.1019" fill="#84BE84" rx="3" ry="3" style="stroke:#038048;stroke-width:1;"/><text fill="#000000" font-family="sans-serif" font-size="14" lengthAdjust="spacing" textLength="192.9753" x="28.5" y="1398.0339">output(double error) : double</text><ellipse cx="19.5" cy="1413.1698" fill="#84BE84" rx="3" ry="3" style="stroke:#038048;stroke-width:1;"/><text fill="#000000" font-family="sans-serif" font-size="14" lengthAdjust="spacing" textLength="80.5697" x="28.5" y="1417.1018">reset() : void</text><ellipse cx="19.5" cy="1432.2377" fill="#84BE84" rx="3" ry="3" style="stroke:#038048;stroke-width:1;"/><text fill="#000000" font-family="sans-serif" font-size="14" lengthAdjust="spacing" textLength="268.981" x="28.5" y="1436.1697">setClamp(double max, double min) : void</text><ellipse cx="19.5" cy="1451.3056" fill="#84BE84" rx="3" ry="3" style="stroke:#038048;stroke-width:1;"/><text fill="#000000" font-family="sans-serif" font-size="14" lengthAdjust="spacing" textLength="356.5367" x="28.5" y="1455.2376">update_params(double kp, double ki, double kd) : void</text><line style="stroke:#181818;stroke-width:0.5;" x1="9.5" x2="390.0367" y1="1463.3396" y2="1463.3396"/><ellipse cx="19.5" cy="1478.3735" fill="none" rx="3" ry="3" style="stroke:#038048;stroke-width:1;"/><text fill="#000000" font-family="sans-serif" font-size="14" lengthAdjust="spacing" textLength="72.9677" x="28.5" y="1482.3055">kd : double</text><ellipse cx="19.5" cy="1497.4415" fill="none" rx="3" ry="3" style="stroke:#038048;stroke-width:1;"/><text fill="#000000" font-family="sans-serif" font-size="14" lengthAdjust="spacing" textLength="67.9697" x="28.5" y="1501.3734">ki : double</text><ellipse cx="19.5" cy="1516.5094" fill="none" rx="3" ry="3" style="stroke:#038048;stroke-width:1;"/><text fill="#000000" font-family="sans-serif" font-size="14" lengthAdjust="spacing" textLength="72.9677" x="28.5" y="1520.4414">kp : double</text></g><!--class C_0009962022010138106661--><g class="entity" data-entity="C_0009962022010138106661" data-source-line="22" data-uid="ent0004" id="entity_C_0009962022010138106661"><rect fill="#F1F1F1" height="162.4075" rx="2.5" ry="2.5" style="stroke:#181818;stroke-width:0.5;" width="188.0634" x="428" y="1097"/><ellipse cx="480.7098" cy="1113" fill="#ADD1B2" rx="11" ry="11" style="stroke:#181818;stroke-width:1;"/><path d="M483.6786,1118.6406 Q483.1004,1118.9375 482.4598,1119.0781 Q481.8192,1119.2344 481.1161,1119.2344 Q478.6161,1119.2344 477.2879,1117.5938 Q475.9754,1115.9375 475.9754,1112.8125 Q475.9754,1109.6875 477.2879,1108.0313 Q478.6161,1106.375 481.1161,1106.375 Q481.8192,1106.375 482.4598,1106.5313 Q483.1161,1106.6875 483.6786,1106.9844 L483.6786,1109.7031 Q483.0536,1109.125 482.4598,1108.8594 Q481.8661,1108.5781 481.2411,1108.5781 Q479.8973,1108.5781 479.2098,1109.6563 Q478.5223,1110.7188 478.5223,1112.8125 Q478.5223,1114.9063 479.2098,1115.9844 Q479.8973,1117.0469 481.2411,1117.0469 Q481.8661,1117.0469 482.4598,1116.7813 Q483.0536,1116.5 483.6786,1115.9219 L483.6786,1118.6406 Z " fill="#000000"/><text fill="#000000" font-family="sans-serif" font-size="14" lengthAdjust="spacing" textLength="74.1437" x="501.2098" y="1118.432">SimParams</text><line style="stroke:#181818;stroke-width:0.5;" x1="429" x2="615.0634" y1="1129" y2="1129"/><line style="stroke:#181818;stroke-width:0.5;" x1="429" x2="615.0634" y1="1137" y2="1137"/><ellipse cx="439" cy="1152.034" fill="none" rx="3" ry="3" style="stroke:#038048;stroke-width:1;"/><text fill="#000000" font-family="sans-serif" font-size="14" lengthAdjust="spacing" textLength="63.4617" x="448" y="1155.9659">delay : int</text><ellipse cx="439" cy="1171.1019" fill="none" rx="3" ry="3" style="stroke:#038048;stroke-width:1;"/><text fill="#000000" font-family="sans-serif" font-size="14" lengthAdjust="spacing" textLength="101.1776" x="448" y="1175.0339">delta_t : double</text><ellipse cx="439" cy="1190.1698" fill="none" rx="3" ry="3" style="stroke:#038048;stroke-width:1;"/><text fill="#000000" font-family="sans-serif" font-size="14" lengthAdjust="spacing" textLength="65.4917" x="448" y="1194.1018">g : double</text><ellipse cx="439" cy="1209.2377" fill="none" rx="3" ry="3" style="stroke:#038048;stroke-width:1;"/><text fill="#000000" font-family="sans-serif" font-size="14" lengthAdjust="spacing" textLength="59.3598" x="448" y="1213.1697">jitter : int</text><ellipse cx="439" cy="1228.3056" fill="none" rx="3" ry="3" style="stroke:#038048;stroke-width:1;"/><text fill="#000000" font-family="sans-serif" font-size="14" lengthAdjust="spacing" textLength="118.2155" x="448" y="1232.2376">ref_angle : double</text><ellipse cx="439" cy="1247.3735" fill="none" rx="3" ry="3" style="stroke:#038048;stroke-width:1;"/><text fill="#000000" font-family="sans-serif" font-size="14" lengthAdjust="spacing" textLength="162.0634" x="448" y="1251.3055">simulation_time : double</text></g><!--class C_0003600186653709220194--><g class="entity" data-entity="C_0003600186653709220194" data-source-line="32" data-uid="ent0005" id="entity_C_0003600186653709220194"><rect fill="#F1F1F1" height="124.2717" rx="2.5" ry="2.5" style="stroke:#181818;stroke-width:0.5;" width="103.0417" x="651.5" y="1116"/><ellipse cx="686.0767" cy="1132" fill="#ADD1B2" rx="11" ry="11" style="stroke:#181818;stroke-width:1;"/><path d="M689.0455,1137.6406 Q688.4673,1137.9375 687.8267,1138.0781 Q687.1861,1138.2344 686.483,1138.2344 Q683.983,1138.2344 682.6548,1136.5938 Q681.3423,1134.9375 681.3423,1131.8125 Q681.3423,1128.6875 682.6548,1127.0313 Q683.983,1125.375 686.483,1125.375 Q687.1861,1125.375 687.8267,1125.5313 Q688.483,1125.6875 689.0455,1125.9844 L689.0455,1128.7031 Q688.4205,1128.125 687.8267,1127.8594 Q687.233,1127.5781 686.608,1127.5781 Q685.2642,1127.5781 684.5767,1128.6563 Q683.8892,1129.7188 683.8892,1131.8125 Q683.8892,1133.9063 684.5767,1134.9844 Q685.2642,1136.0469 686.608,1136.0469 Q687.233,1136.0469 687.8267,1135.7813 Q688.4205,1135.5 689.0455,1134.9219 L689.0455,1137.6406 Z " fill="#000000"/><text fill="#000000" font-family="sans-serif" font-size="14" lengthAdjust="spacing" textLength="27.5379" x="704.4271" y="1137.432">Cart</text><line style="stroke:#181818;stroke-width:0.5;" x1="652.5" x2="753.5417" y1="1148" y2="1148"/><line style="stroke:#181818;stroke-width:0.5;" x1="652.5" x2="753.5417" y1="1156" y2="1156"/><ellipse cx="662.5" cy="1171.034" fill="none" rx="3" ry="3" style="stroke:#038048;stroke-width:1;"/><text fill="#000000" font-family="sans-serif" font-size="14" lengthAdjust="spacing" textLength="61.6278" x="671.5" y="1174.9659">I : double</text><ellipse cx="662.5" cy="1190.1019" fill="none" rx="3" ry="3" style="stroke:#038048;stroke-width:1;"/><text fill="#000000" font-family="sans-serif" font-size="14" lengthAdjust="spacing" textLength="69.5797" x="671.5" y="1194.0339">M : double</text><ellipse cx="662.5" cy="1209.1698" fill="none" rx="3" ry="3" style="stroke:#038048;stroke-width:1;"/><text fill="#000000" font-family="sans-serif" font-size="14" lengthAdjust="spacing" textLength="77.0417" x="671.5" y="1213.1018">len : double</text><ellipse cx="662.5" cy="1228.2377" fill="none" rx="3" ry="3" style="stroke:#038048;stroke-width:1;"/><text fill="#000000" font-family="sans-serif" font-size="14" lengthAdjust="spacing" textLength="69.9717" x="671.5" y="1232.1697">m : double</text></g><!--class C_0005739425762276452218--><g class="entity" data-entity="C_0005739425762276452218" data-source-line="40" data-uid="ent0006" id="entity_C_0005739425762276452218"><rect fill="#F1F1F1" height="704.3092" rx="2.5" ry="2.5" style="stroke:#181818;stroke-width:0.5;" width="691.8516" x="176" y="314"/><ellipse cx="485.7699" cy="330" fill="#ADD1B2" rx="11" ry="11" style="stroke:#181818;stroke-width:1;"/><path d="M488.7387,335.6406 Q488.1606,335.9375 487.5199,336.0781 Q486.8793,336.2344 486.1762,336.2344 Q483.6762,336.2344 482.3481,334.5938 Q481.0356,332.9375 481.0356,329.8125 Q481.0356,326.6875 482.3481,325.0313 Q483.6762,323.375 486.1762,323.375 Q486.8793,323.375 487.5199,323.5313 Q488.1762,323.6875 488.7387,323.9844 L488.7387,326.7031 Q488.1137,326.125 487.5199,325.8594 Q486.9262,325.5781 486.3012,325.5781 Q484.9574,325.5781 484.2699,326.6563 Q483.5824,327.7188 483.5824,329.8125 Q483.5824,331.9063 484.2699,332.9844 Q484.9574,334.0469 486.3012,334.0469 Q486.9262,334.0469 487.5199,333.7813 Q488.1137,333.5 488.7387,332.9219 L488.7387,335.6406 Z " fill="#000000"/><text fill="#000000" font-family="sans-serif" font-size="14" lengthAdjust="spacing" textLength="63.8118" x="506.2699" y="335.432">Simulator</text><line style="stroke:#181818;stroke-width:0.5;" x1="177" x2="866.8516" y1="346" y2="346"/><ellipse cx="187" cy="361.034" fill="#84BE84" rx="3" ry="3" style="stroke:#038048;stroke-width:1;"/><text fill="#000000" font-family="sans-serif" font-size="14" lengthAdjust="spacing" textLength="111.0476" x="196" y="364.9659">Simulator() : void</text><ellipse cx="187" cy="380.1019" fill="#84BE84" rx="3" ry="3" style="stroke:#038048;stroke-width:1;"/><text fill="#000000" font-family="sans-serif" font-size="14" lengthAdjust="spacing" textLength="665.8516" x="196" y="384.0339">Simulator(std::unique_ptr&lt;Controller&gt; controller, const SimParams &amp; params, const Cart &amp; cart) : void</text><line style="stroke:#181818;stroke-width:1;stroke-dasharray:1.0,2.0;" x1="177" x2="866.8516" y1="392.1358" y2="392.1358"/><ellipse cx="187" cy="407.1698" fill="#84BE84" rx="3" ry="3" style="stroke:#038048;stroke-width:1;"/><text fill="#000000" font-family="sans-serif" font-size="14" lengthAdjust="spacing" textLength="149.6174" x="196" y="411.1018">reset_simulator() : void</text><ellipse cx="187" cy="426.2377" fill="#84BE84" rx="3" ry="3" style="stroke:#038048;stroke-width:1;"/><text fill="#000000" font-family="sans-serif" font-size="14" lengthAdjust="spacing" textLength="139.3695" x="196" y="430.1697">run_simulator() : void</text><ellipse cx="187" cy="445.3056" fill="#84BE84" rx="3" ry="3" style="stroke:#038048;stroke-width:1;"/><text fill="#000000" font-family="sans-serif" font-size="14" lengthAdjust="spacing" textLength="340.8287" x="196" y="449.2376">update_params(double ref, int delay, int jitter) : void</text><line style="stroke:#181818;stroke-width:0.5;" x1="177" x2="866.8516" y1="457.3396" y2="457.3396"/><ellipse cx="187" cy="472.3735" fill="none" rx="3" ry="3" style="stroke:#038048;stroke-width:1;"/><text fill="#000000" font-family="sans-serif" font-size="14" lengthAdjust="spacing" textLength="65.8277" x="196" y="476.3055">A : double</text><ellipse cx="187" cy="491.4415" fill="none" rx="3" ry="3" style="stroke:#038048;stroke-width:1;"/><text fill="#000000" font-family="sans-serif" font-size="14" lengthAdjust="spacing" textLength="105.2236" x="196" y="495.3734">B : const double</text><ellipse cx="187" cy="510.5094" fill="none" rx="3" ry="3" style="stroke:#038048;stroke-width:1;"/><text fill="#000000" font-family="sans-serif" font-size="14" lengthAdjust="spacing" textLength="65.7297" x="196" y="514.4414">C : double</text><ellipse cx="187" cy="529.5773" fill="none" rx="3" ry="3" style="stroke:#038048;stroke-width:1;"/><text fill="#000000" font-family="sans-serif" font-size="14" lengthAdjust="spacing" textLength="64.6657" x="196" y="533.5093">E : double</text><ellipse cx="187" cy="548.6452" fill="none" rx="3" ry="3" style="stroke:#038048;stroke-width:1;"/><text fill="#000000" font-family="sans-serif" font-size="14" lengthAdjust="spacing" textLength="64.1478" x="196" y="552.5772">F : double</text><ellipse cx="187" cy="567.7131" fill="none" rx="3" ry="3" style="stroke:#038048;stroke-width:1;"/><text fill="#000000" font-family="sans-serif" font-size="14" lengthAdjust="spacing" textLength="64.6657" x="196" y="571.6451">T : double</text><ellipse cx="187" cy="586.781" fill="none" rx="3" ry="3" style="stroke:#038048;stroke-width:1;"/><text fill="#000000" font-family="sans-serif" font-size="14" lengthAdjust="spacing" textLength="103.9776" x="196" y="590.713">a : const double</text><ellipse cx="187" cy="605.849" fill="none" rx="3" ry="3" style="stroke:#038048;stroke-width:1;"/><text fill="#000000" font-family="sans-serif" font-size="14" lengthAdjust="spacing" textLength="65.4917" x="196" y="609.7809">b : double</text><ellipse cx="187" cy="624.9169" fill="none" rx="3" ry="3" style="stroke:#038048;stroke-width:1;"/><text fill="#000000" font-family="sans-serif" font-size="14" lengthAdjust="spacing" textLength="139.1734" x="196" y="628.8489">buffer_size : const int</text><ellipse cx="187" cy="643.9848" fill="none" rx="3" ry="3" style="stroke:#038048;stroke-width:1;"/><text fill="#000000" font-family="sans-serif" font-size="14" lengthAdjust="spacing" textLength="63.6017" x="196" y="647.9168">c : double</text><ellipse cx="187" cy="663.0527" fill="none" rx="3" ry="3" style="stroke:#038048;stroke-width:1;"/><text fill="#000000" font-family="sans-serif" font-size="14" lengthAdjust="spacing" textLength="125.7615" x="196" y="666.9847">c_ml : const double</text><ellipse cx="187" cy="682.1206" fill="none" rx="3" ry="3" style="stroke:#038048;stroke-width:1;"/><text fill="#000000" font-family="sans-serif" font-size="14" lengthAdjust="spacing" textLength="90.5937" x="196" y="686.0526">error : double</text><ellipse cx="187" cy="701.1885" fill="none" rx="3" ry="3" style="stroke:#038048;stroke-width:1;"/><text fill="#000000" font-family="sans-serif" font-size="14" lengthAdjust="spacing" textLength="183.4273" x="196" y="705.1205">g_pause : std::atomic&lt;bool&gt;</text><ellipse cx="187" cy="720.2565" fill="none" rx="3" ry="3" style="stroke:#038048;stroke-width:1;"/><text fill="#000000" font-family="sans-serif" font-size="14" lengthAdjust="spacing" textLength="233.8971" x="196" y="724.1884">g_pause_cv : std::condition_variable</text><ellipse cx="187" cy="739.3244" fill="none" rx="3" ry="3" style="stroke:#038048;stroke-width:1;"/><text fill="#000000" font-family="sans-serif" font-size="14" lengthAdjust="spacing" textLength="183.8613" x="196" y="743.2564">g_pause_mutex : std::mutex</text><ellipse cx="187" cy="758.3923" fill="none" rx="3" ry="3" style="stroke:#038048;stroke-width:1;"/><text fill="#000000" font-family="sans-serif" font-size="14" lengthAdjust="spacing" textLength="177.0433" x="196" y="762.3243">g_reset : std::atomic&lt;bool&gt;</text><ellipse cx="187" cy="777.4602" fill="none" rx="3" ry="3" style="stroke:#038048;stroke-width:1;"/><text fill="#000000" font-family="sans-serif" font-size="14" lengthAdjust="spacing" textLength="174.1594" x="196" y="781.3922">g_start : std::atomic&lt;bool&gt;</text><ellipse cx="187" cy="796.5281" fill="none" rx="3" ry="3" style="stroke:#038048;stroke-width:1;"/><text fill="#000000" font-family="sans-serif" font-size="14" lengthAdjust="spacing" textLength="224.6292" x="196" y="800.4601">g_start_cv : std::condition_variable</text><ellipse cx="187" cy="815.596" fill="none" rx="3" ry="3" style="stroke:#038048;stroke-width:1;"/><text fill="#000000" font-family="sans-serif" font-size="14" lengthAdjust="spacing" textLength="174.5934" x="196" y="819.528">g_start_mutex : std::mutex</text><ellipse cx="187" cy="834.664" fill="none" rx="3" ry="3" style="stroke:#038048;stroke-width:1;"/><text fill="#000000" font-family="sans-serif" font-size="14" lengthAdjust="spacing" textLength="31.9619" x="196" y="838.5959">i : int</text><ellipse cx="187" cy="853.7319" fill="none" rx="3" ry="3" style="stroke:#038048;stroke-width:1;"/><text fill="#000000" font-family="sans-serif" font-size="14" lengthAdjust="spacing" textLength="83.2857" x="196" y="857.6639">m_cart : Cart</text><ellipse cx="187" cy="872.7998" fill="none" rx="3" ry="3" style="stroke:#038048;stroke-width:1;"/><text fill="#000000" font-family="sans-serif" font-size="14" lengthAdjust="spacing" textLength="276.1909" x="196" y="876.7318">m_controller : std::unique_ptr&lt;Controller&gt;</text><ellipse cx="187" cy="891.8677" fill="none" rx="3" ry="3" style="stroke:#038048;stroke-width:1;"/><text fill="#000000" font-family="sans-serif" font-size="14" lengthAdjust="spacing" textLength="154.3774" x="196" y="895.7997">m_params : SimParams</text><ellipse cx="187" cy="910.9356" fill="none" rx="3" ry="3" style="stroke:#038048;stroke-width:1;"/><text fill="#000000" font-family="sans-serif" font-size="14" lengthAdjust="spacing" textLength="197.4692" x="196" y="914.8676">theta : std::array&lt;double,100&gt;</text><ellipse cx="187" cy="930.0035" fill="none" rx="3" ry="3" style="stroke:#038048;stroke-width:1;"/><text fill="#000000" font-family="sans-serif" font-size="14" lengthAdjust="spacing" textLength="209.8032" x="196" y="933.9355">theta_dot : std::array&lt;double,2&gt;</text><ellipse cx="187" cy="949.0715" fill="none" rx="3" ry="3" style="stroke:#038048;stroke-width:1;"/><text fill="#000000" font-family="sans-serif" font-size="14" lengthAdjust="spacing" textLength="238.1531" x="196" y="953.0034">theta_dot_dot : std::array&lt;double,2&gt;</text><ellipse cx="187" cy="968.1394" fill="none" rx="3" ry="3" style="stroke:#038048;stroke-width:1;"/><text fill="#000000" font-family="sans-serif" font-size="14" lengthAdjust="spacing" textLength="154.3494" x="196" y="972.0714">x : std::array&lt;double,2&gt;</text><ellipse cx="187" cy="987.2073" fill="none" rx="3" ry="3" style="stroke:#038048;stroke-width:1;"/><text fill="#000000" font-family="sans-serif" font-size="14" lengthAdjust="spacing" textLength="182.6993" x="196" y="991.1393">x_dot : std::array&lt;double,2&gt;</text><ellipse cx="187" cy="1006.2752" fill="none" rx="3" ry="3" style="stroke:#038048;stroke-width:1;"/><text fill="#000000" font-family="sans-serif" font-size="14" lengthAdjust="spacing" textLength="211.0492" x="196" y="1010.2072">x_dot_dot : std::array&lt;double,2&gt;</text></g><!--class C_0011200438516648707549--><g class="entity" data-entity="C_0011200438516648707549" data-source-line="79" data-uid="ent0007" id="entity_C_0011200438516648707549"><rect fill="#F1F1F1" height="227.6113" rx="2.5" ry="2.5" style="stroke:#181818;stroke-width:0.5;" width="305.3829" x="369.5" y="7"/><ellipse cx="475.1156" cy="23" fill="#ADD1B2" rx="11" ry="11" style="stroke:#181818;stroke-width:1;"/><path d="M478.0844,28.6406 Q477.5063,28.9375 476.8656,29.0781 Q476.225,29.2344 475.5219,29.2344 Q473.0219,29.2344 471.6938,27.5938 Q470.3813,25.9375 470.3813,22.8125 Q470.3813,19.6875 471.6938,18.0313 Q473.0219,16.375 475.5219,16.375 Q476.225,16.375 476.8656,16.5313 Q477.5219,16.6875 478.0844,16.9844 L478.0844,19.7031 Q477.4594,19.125 476.8656,18.8594 Q476.2719,18.5781 475.6469,18.5781 Q474.3031,18.5781 473.6156,19.6563 Q472.9281,20.7188 472.9281,22.8125 Q472.9281,24.9063 473.6156,25.9844 Q474.3031,27.0469 475.6469,27.0469 Q476.2719,27.0469 476.8656,26.7813 Q477.4594,26.5 478.0844,25.9219 L478.0844,28.6406 Z " fill="#000000"/><text fill="#000000" font-family="sans-serif" font-size="14" lengthAdjust="spacing" textLength="85.6517" x="495.6156" y="28.432">CommServer</text><line style="stroke:#181818;stroke-width:0.5;" x1="370.5" x2="673.8829" y1="39" y2="39"/><ellipse cx="380.5" cy="54.034" fill="#84BE84" rx="3" ry="3" style="stroke:#038048;stroke-width:1;"/><text fill="#000000" font-family="sans-serif" font-size="14" lengthAdjust="spacing" textLength="237.6351" x="389.5" y="57.9659">CommServer(Simulator &amp; sim) : void</text><line style="stroke:#181818;stroke-width:1;stroke-dasharray:1.0,2.0;" x1="370.5" x2="673.8829" y1="66.0679" y2="66.0679"/><rect fill="#F24D5C" height="6" style="stroke:#C82930;stroke-width:1;" width="6" x="377.5" y="78.1019"/><text fill="#000000" font-family="sans-serif" font-size="14" lengthAdjust="spacing" textLength="279.3829" x="389.5" y="85.0339">handle_request(tcp::socket &amp; socket) : void</text><rect fill="#F24D5C" height="6" style="stroke:#C82930;stroke-width:1;" width="6" x="377.5" y="97.1698"/><text fill="#000000" font-family="sans-serif" font-size="14" lengthAdjust="spacing" textLength="117.7115" x="389.5" y="104.1018">run_server() : void</text><ellipse cx="380.5" cy="119.2377" fill="#84BE84" rx="3" ry="3" style="stroke:#038048;stroke-width:1;"/><text fill="#000000" font-family="sans-serif" font-size="14" lengthAdjust="spacing" textLength="125.0755" x="389.5" y="123.1697">start_server() : void</text><line style="stroke:#181818;stroke-width:0.5;" x1="370.5" x2="673.8829" y1="131.2717" y2="131.2717"/><rect fill="none" height="6" style="stroke:#C82930;stroke-width:1;" width="6" x="377.5" y="143.3056"/><text fill="#000000" font-family="sans-serif" font-size="14" lengthAdjust="spacing" textLength="153.1314" x="389.5" y="150.2376">acceptor : tcp::acceptor</text><rect fill="none" height="6" style="stroke:#C82930;stroke-width:1;" width="6" x="377.5" y="162.3735"/><text fill="#000000" font-family="sans-serif" font-size="14" lengthAdjust="spacing" textLength="164.1914" x="389.5" y="169.3055">address : net::ip::address</text><rect fill="none" height="6" style="stroke:#C82930;stroke-width:1;" width="6" x="377.5" y="181.4415"/><text fill="#000000" font-family="sans-serif" font-size="14" lengthAdjust="spacing" textLength="126.4895" x="389.5" y="188.3734">ioc : net::io_context</text><rect fill="none" height="6" style="stroke:#C82930;stroke-width:1;" width="6" x="377.5" y="200.5094"/><text fill="#000000" font-family="sans-serif" font-size="14" lengthAdjust="spacing" textLength="138.6415" x="389.5" y="207.4414">port : unsigned short</text><rect fill="none" height="6" style="stroke:#C82930;stroke-width:1;" width="6" x="377.5" y="219.5773"/><text fill="#000000" font-family="sans-serif" font-size="14" lengthAdjust="spacing" textLength="112.1396" x="389.5" y="226.5093">sim : Simulator &amp;</text></g><!--reverse link C_0015707221190624193204 to C_0006173588471794238490--><g class="link" data-entity-1="C_0015707221190624193204" data-entity-2="C_0006173588471794238490" data-source-line="93" data-uid="lnk8" id="link_C_0015707221190624193204_C_0006173588471794238490"><path codeLine="93" d="M200,1258.07 C200,1282.25 200,1292.75 200,1319.97" fill="none" id="C_0015707221190624193204-backto-C_0006173588471794238490" style="stroke:#181818;stroke-width:1;"/><polygon fill="none" points="200,1240.07,194,1258.07,206,1258.07,200,1240.07" style="stroke:#181818;stroke-width:1;"/></g><!--reverse link C_0005739425762276452218 to C_0015707221190624193204--><g class="link" data-entity-1="C_0005739425762276452218" data-entity-2="C_0015707221190624193204" data-source-line="94" data-uid="lnk9" id="link_C_0005739425762276452218_C_0015707221190624193204"><path codeLine="94" d="M293.9325,1028.2261 C270.5725,1065.2161 255.62,1088.9 238.67,1115.75" fill="none" id="C_0005739425762276452218-backto-C_0015707221190624193204" style="stroke:#181818;stroke-width:1;"/><polygon fill="none" points="300.34,1018.08,293.7542,1021.0172,293.9325,1028.2261,300.5183,1025.2889,300.34,1018.08" style="stroke:#181818;stroke-width:1;"/><ellipse cx="284" cy="1058.353" fill="none" rx="3" ry="3" style="stroke:#038048;stroke-width:1;"/><text fill="#000000" font-family="sans-serif" font-size="13" lengthAdjust="spacing" textLength="77.4021" x="291" y="1062.897">m_controller</text></g><!--reverse link C_0005739425762276452218 to C_0009962022010138106661--><g class="link" data-entity-1="C_0005739425762276452218" data-entity-2="C_0009962022010138106661" data-source-line="95" data-uid="lnk10" id="link_C_0005739425762276452218_C_0009962022010138106661"><path codeLine="95" d="M522,1030.08 C522,1058.77 522,1073.57 522,1096.68" fill="none" id="C_0005739425762276452218-backto-C_0009962022010138106661" style="stroke:#181818;stroke-width:1;"/><polygon fill="none" points="522,1018.08,518,1024.08,522,1030.08,526,1024.08,522,1018.08" style="stroke:#181818;stroke-width:1;"/><ellipse cx="528" cy="1058.353" fill="none" rx="3" ry="3" style="stroke:#038048;stroke-width:1;"/><text fill="#000000" font-family="sans-serif" font-size="13" lengthAdjust="spacing" textLength="64.259" x="535" y="1062.897">m_params</text></g><!--reverse link C_0005739425762276452218 to C_0003600186653709220194--><g class="link" data-entity-1="C_0005739425762276452218" data-entity-2="C_0003600186653709220194" data-source-line="96" data-uid="lnk11" id="link_C_0005739425762276452218_C_0003600186653709220194"><path codeLine="96" d="M650.6141,1029.3887 C663.7441,1066.3787 671.73,1088.9 681.26,1115.75" fill="none" id="C_0005739425762276452218-backto-C_0003600186653709220194" style="stroke:#181818;stroke-width:1;"/><polygon fill="none" points="646.6,1018.08,644.8375,1025.0724,650.6141,1029.3887,652.3766,1022.3963,646.6,1018.08" style="stroke:#181818;stroke-width:1;"/><ellipse cx="670" cy="1058.353" fill="none" rx="3" ry="3" style="stroke:#038048;stroke-width:1;"/><text fill="#000000" font-family="sans-serif" font-size="13" lengthAdjust="spacing" textLength="41.522" x="677" y="1062.897">m_cart</text></g><!--link C_0011200438516648707549 to C_0005739425762276452218--><g class="link" data-entity-1="C_0011200438516648707549" data-entity-2="C_0005739425762276452218" data-source-line="97" data-uid="lnk12" id="link_C_0011200438516648707549_C_0005739425762276452218"><path codeLine="97" d="M522,235.17 C522,259.26 522,279.9 522,307.78" fill="none" id="C_0011200438516648707549-to-C_0005739425762276452218" style="stroke:#181818;stroke-width:1;"/><polygon fill="#181818" points="522,313.78,526,304.78,522,308.78,518,304.78,522,313.78" style="stroke:#181818;stroke-width:1;"/><rect fill="none" height="6" style="stroke:#C82930;stroke-width:1;" width="6" x="525" y="272.353"/><text fill="#000000" font-family="sans-serif" font-size="13" lengthAdjust="spacing" textLength="21.736" x="535" y="279.897">sim</text></g><!--SRC=[bLPRRzis57xNho3oqBg8PP2Ih1ko09jtGO4MAD1rhm8jCGbdITH8AalNzR-Ff2oANgbaU_BXkVCxtn6DZq9oN4jmTM2zvAnj2Ry2M8131I7QPp2B8eGAc4O9Ak889W6U8zOym9VWo-pq5LopKGwZt3HiFBO44CuPVmE-0n2KOD9TU7CYYDpC3e-CDXTcPJoqk1lcT1r-se9Pflrgt3WqM99gm1ntOWu-3JRsH1UnkSXILS7Ne6wn4E3gmziVFIZ156NnFi-J36L54iLvKi1pn9fPGNHzaKpT-5nljmlya5cuB4RdY9T1cHt_9meB0jUdngb_ekvXM0uMg8-q-s2AB20LHHh1A888eZX7C4rJv8BaCIkGTEc6jFYpga5xQGuILzAfV-_8lrCf2PzzERchS7-lBhDu2DgDBPQKzPMa7V6qVi1SBbt7gU9udgRxE8E5Rgz8tAuzvdFNRvsYxnsv9RrpwlpOwHQPGx1z5YlcxBCqYh8qsQjzozqkF6PDC9l8eSgY4x8fox6dVuoA49BVB5oy1RMLjreM4jY1WbTWeiziqNWfPQr-BZXiI5e9JmzyxBrwBplL4BTwdC3GO1AdCL_myti7r1-KFFKsQmwEzIT7_jcHVtLa_4s6esCzZdTtXAih_4Mido5SxJZLLTT-ayLiiijTTTbHw2nc6WgFZjOtHyRQMskiwiVPhf8rr73t4NEAtHHLDqhoD3kQWxQP8Qob5rAFxZdZYxKdBrzjEczXLzLJ6KqKSxJacaFyBDI-4nUKd-LVS2qVYCIsRSxnvvi9pos2yFPihneclJwHw_6irzEwvVcubp8ldnhMTHy9VtHVN1H1cCJv7gLfagktTPyKpghxp7hLbqmRk-5gATMMkJiPFk2-QObYXO9Ro8siXx8Kh3uHlS6JOFr3iwPJJkUfCGF_jrfjO8ZhcWpIqDladS_AqZIAXtgAFP5bIRLnKWKXPRNLCqCDyYI3S626CcClw7rF6Y0Ub288rNqcBimtL5Yk_Wkv-JiCrz_drGydEqTvSvRWWi0lP_6-QoRBHEt_aC7tnanzw8LQPKKOtgw_3YNGM0R1wrz8JxZwwZRWJoeVW69QVn-ENRi5Qi12hJk0ktGN1Q_VlVljlTLzEewz72TlgqJv3krYi46ZiQ8t_m00]--></g></svg>